<?xml version="1.0" encoding="utf-8"?>
<!-- Generator: Adobe Illustrator 26.2.1, SVG Export Plug-In . SVG Version: 6.00 Build 0)  -->
<svg version="1.1" id="Capa_1" xmlns="http://www.w3.org/2000/svg" xmlns:xlink="http://www.w3.org/1999/xlink" x="0px" y="0px"
	 viewBox="0 0 174.1 50" style="enable-background:new 0 0 174.1 50;" xml:space="preserve">
<style type="text/css">
	.st0{fill:#00E524;}
	.st1{fill:#9CFF2D;}
</style>
<g>
	<g>
		<g>
			<g>
				<path d="M49,8.1V1h7C56,4.9,52.9,8.1,49,8.1z M49,10.8h7v26.6h-7V10.8z"/>
				<path d="M83.9,8.1V1h7C90.9,4.9,87.7,8.1,83.9,8.1 M83.9,10.8h7v26.6h-7V10.8z"/>
				<path d="M118.1,27.8c-0.2,1.6-0.6,3-1.3,4.2c-0.7,1.3-1.6,2.3-2.7,3.2c-1.1,0.9-2.3,1.6-3.7,2.1c-1.4,0.5-2.9,0.8-4.5,0.8
					c-1.8,0-3.5-0.3-4.9-0.9c-1.5-0.6-2.8-1.5-3.9-2.7c-1.1-1.2-1.9-2.7-2.5-4.5c-0.6-1.8-0.9-3.9-0.9-6.2c0-2.4,0.3-4.4,0.9-6.2
					c0.6-1.7,1.4-3.1,2.5-4.2c1.1-1.1,2.4-1.9,3.9-2.5c1.5-0.5,3.2-0.8,5.1-0.8c1.7,0,3.3,0.2,4.7,0.7c1.4,0.5,2.7,1.2,3.7,2.1
					c1.1,0.9,1.9,2,2.5,3.2c0.6,1.3,1,2.7,1.1,4.2H111c-0.2-1.4-0.7-2.4-1.7-3.2c-0.9-0.8-2-1.2-3.4-1.2c-0.8,0-1.5,0.1-2.1,0.4
					c-0.6,0.3-1.2,0.7-1.7,1.3c-0.5,0.6-0.9,1.4-1.2,2.4c-0.3,1-0.4,2.2-0.4,3.7c0,2.9,0.5,5.1,1.6,6.5c1,1.4,2.3,2.1,3.6,2.1
					c1.4,0,2.5-0.4,3.5-1.1c1-0.8,1.5-1.9,1.7-3.3H118.1z"/>
				<path d="M73.3,30.6c-0.7,0.9-1.7,1.4-3.1,1.4c-1.4,0-2.5-0.5-3.1-1.4c-0.6-0.9-0.9-2.2-0.9-3.9V15.7h14.7v-5H66.1V3.6h-6.9v23.8
					c0,1.4,0.2,2.8,0.6,4.1c0.4,1.3,1,2.4,1.9,3.4c0.9,1,2,1.8,3.4,2.3c1.4,0.6,3,0.9,5,0.9c1.9,0,3.5-0.3,4.8-0.9
					c1.4-0.6,2.5-1.4,3.4-2.4c0.9-1,1.5-2.1,1.9-3.4c0.4-1.2,0.6-2.4,0.6-3.7h-6.6C74.1,28.9,73.8,29.9,73.3,30.6"/>
				<g>
					<path class="st0" d="M1.7,11.3C4.7,4.7,11.4,0,19.2,0c6.2,0,11.7,2.9,15.2,7.4L13.9,19c-2.3,1.3-5.2,0.6-6.6-1.6L5.1,14
						C4.3,12.7,3,11.8,1.7,11.3"/>
					<path class="st0" d="M38.4,19.2c0,0.4,0,0.7,0,1c-0.5,10.1-8.9,18.2-19.2,18.2C8.6,38.4,0,29.8,0,19.2c0-0.7,0-1.4,0.1-2.1
						c0-0.3,0.1-0.7,0.1-1c0-0.3,0.1-0.5,0.1-0.8c0-0.2,0.1-0.5,0.2-0.7c0-0.1,0.1-0.2,0.1-0.4c0.5,0.4,1,0.9,1.3,1.5l5.4,8.4
						l2.2,3.5l0.4,0.7c1.4,2.2,4.3,2.9,6.6,1.6l21.7-12.3c0,0,0,0.1,0,0.1C38.4,18.3,38.4,18.7,38.4,19.2"/>
					<path class="st1" d="M36.6,11.1L15,23.4c-2.3,1.3-5.2,0.6-6.6-1.6L7.9,21l-4.1-6.4c-0.7-1-1.6-1.8-2.6-2.3
						c0.1-0.2,0.1-0.4,0.2-0.5c1.2,0.5,2.3,1.3,3,2.5l3.3,5.2c1.4,2.2,4.3,2.9,6.6,1.6l21.2-12c0,0,0,0.1,0.1,0.1
						C36,9.9,36.4,10.5,36.6,11.1"/>
					<path class="st1" d="M38,15.3L16.1,27.7c-2.3,1.3-5.2,0.6-6.6-1.6L9,25.4l-2.2-3.4l-4.2-6.6c-0.5-0.7-1.1-1.4-1.8-1.8
						c0,0,0,0,0-0.1C0.9,13.3,1,13.1,1,12.9c0.9,0.5,1.6,1.2,2.2,2.1l3,4.7l2.2,3.4l0.4,0.7c1.4,2.2,4.3,2.9,6.6,1.6l21.9-12.4
						c0,0,0,0.1,0,0.1C37.7,13.9,37.9,14.6,38,15.3"/>
				</g>
			</g>
		</g>
	</g>
	<g>
		<path class="st0" d="M121,50V10.8h6.8l0.1,3.2c1.6-2.6,4.1-4,7.4-4c1.7,0,3.2,0.3,4.6,1c1.4,0.6,2.6,1.6,3.7,2.8
			c1,1.2,1.8,2.7,2.4,4.5c0.6,1.8,0.9,3.8,0.9,6c0,2-0.2,3.9-0.7,5.5c-0.5,1.7-1.2,3.1-2.1,4.4c-0.9,1.2-2.1,2.2-3.4,2.8
			c-1.4,0.7-2.9,1-4.6,1c-3.3,0-5.9-1.4-7.9-4.2V50H121z M133.5,32.1c4,0,6.1-2.7,6.1-8.2c0-2.4-0.6-4.3-1.7-5.8
			c-1.1-1.5-2.6-2.2-4.3-2.2c-1.7,0-3.1,0.7-4.2,2.1c-1.1,1.4-1.7,3.2-1.7,5.5C127.6,29.2,129.6,32.1,133.5,32.1z"/>
		<path class="st0" d="M155.7,25.9c0.1,2,0.7,3.6,1.8,4.8c1.1,1.2,2.5,1.8,4.2,1.8c1.2,0,2.2-0.3,3.1-0.8c0.9-0.5,1.5-1.3,1.7-2.2
			h7.3c-0.8,2.7-2.3,4.9-4.3,6.3c-2.1,1.5-4.5,2.2-7.4,2.2c-8.9,0-13.3-4.8-13.3-14.5c0-2.1,0.3-3.9,0.9-5.6
			c0.6-1.7,1.4-3.1,2.5-4.3c1.1-1.2,2.4-2.1,4-2.7c1.6-0.6,3.4-0.9,5.5-0.9c4.1,0,7.2,1.3,9.3,4c2.1,2.6,3.2,6.6,3.2,11.9H155.7z
			 M166.8,21.5c0-1-0.2-1.8-0.5-2.6c-0.3-0.7-0.7-1.4-1.2-1.8c-0.5-0.5-1.1-0.8-1.7-1.1c-0.6-0.2-1.3-0.4-2-0.4
			c-1.4,0-2.6,0.5-3.7,1.5c-1,1-1.6,2.5-1.8,4.3H166.8z"/>
	</g>
</g>
</svg>
