<?xml version="1.0" encoding="utf-8"?>
<!-- Generator: Adobe Illustrator 26.2.1, SVG Export Plug-In . SVG Version: 6.00 Build 0)  -->
<svg version="1.1" id="Capa_1" xmlns="http://www.w3.org/2000/svg" xmlns:xlink="http://www.w3.org/1999/xlink" x="0px" y="0px"
	 viewBox="0 0 158.3 45" style="enable-background:new 0 0 158.3 45;" xml:space="preserve">
<style type="text/css">
	.st0{fill:#FFFFFF;}
</style>
<g>
	<g>
		<g>
			<g>
				<path class="st0" d="M45.7,7.3V0.9h6.3C52.1,4.4,49.2,7.3,45.7,7.3z M45.7,9.7h6.3v24h-6.3V9.7z"/>
				<path class="st0" d="M77.1,7.3V0.9h6.3C83.5,4.4,80.6,7.3,77.1,7.3 M77.1,9.7h6.3v24h-6.3V9.7z"/>
				<path class="st0" d="M107.9,25c-0.2,1.4-0.6,2.7-1.2,3.8c-0.6,1.1-1.4,2.1-2.4,2.9c-1,0.8-2.1,1.4-3.3,1.9
					c-1.2,0.5-2.6,0.7-4.1,0.7c-1.6,0-3.1-0.3-4.5-0.8c-1.3-0.5-2.5-1.3-3.5-2.4c-1-1.1-1.7-2.4-2.3-4c-0.5-1.6-0.8-3.5-0.8-5.6
					c0-2.1,0.3-4,0.8-5.6C87.2,14.3,88,13,89,12c1-1,2.1-1.7,3.5-2.2c1.4-0.5,2.9-0.7,4.6-0.7c1.6,0,3,0.2,4.3,0.6
					c1.3,0.4,2.4,1,3.4,1.9c1,0.8,1.7,1.8,2.3,2.9c0.6,1.1,0.9,2.4,1,3.8h-6.4c-0.2-1.2-0.7-2.2-1.5-2.9c-0.8-0.7-1.8-1-3-1
					c-0.7,0-1.3,0.1-1.9,0.3c-0.6,0.2-1.1,0.6-1.5,1.1c-0.4,0.5-0.8,1.2-1,2.1c-0.3,0.9-0.4,2-0.4,3.3c0,2.6,0.5,4.6,1.4,5.8
					c0.9,1.3,2,1.9,3.3,1.9c1.2,0,2.3-0.3,3.2-1c0.9-0.7,1.4-1.7,1.5-3H107.9z"/>
				<path class="st0" d="M67.6,27.6c-0.6,0.8-1.5,1.2-2.8,1.2c-1.3,0-2.2-0.4-2.8-1.2c-0.6-0.8-0.9-2-0.9-3.5v-9.8h13.2V9.7H61.2
					V3.2h-6.2v21.4c0,1.3,0.2,2.5,0.5,3.7c0.4,1.2,0.9,2.2,1.7,3.1c0.8,0.9,1.8,1.6,3,2.1c1.2,0.5,2.7,0.8,4.5,0.8
					c1.7,0,3.1-0.3,4.4-0.8c1.2-0.5,2.2-1.2,3-2.1c0.8-0.9,1.4-1.9,1.8-3.1c0.3-1.1,0.5-2.2,0.5-3.3h-5.9
					C68.4,26.1,68.1,26.9,67.6,27.6"/>
				<g>
					<path class="st0" d="M3.2,10.2C5.9,4.2,11.9,0,19,0c5.5,0,10.5,2.6,13.6,6.7L14.2,17.1c-2.1,1.2-4.7,0.5-5.9-1.5l-2-3
						C5.5,11.4,4.4,10.6,3.2,10.2"/>
					<path class="st0" d="M36.2,17.3c0,0.3,0,0.6,0,0.9c-0.5,9.1-8,16.3-17.3,16.3c-9.6,0-17.3-7.7-17.3-17.3c0-0.6,0-1.3,0.1-1.9
						c0-0.3,0.1-0.6,0.1-0.9C1.9,14.2,2,14,2,13.8c0-0.2,0.1-0.4,0.1-0.6c0-0.1,0.1-0.2,0.1-0.3c0.5,0.4,0.9,0.8,1.2,1.3l4.8,7.5
						l2,3.1l0.4,0.6c1.3,2,3.9,2.6,6,1.5l19.5-11c0,0,0,0.1,0,0.1C36.2,16.4,36.2,16.9,36.2,17.3"/>
					<path class="st0" d="M34.6,10L15.2,21c-2.1,1.2-4.7,0.5-5.9-1.5l-0.4-0.6l-3.7-5.7c-0.6-0.9-1.4-1.6-2.3-2.1
						C2.9,11,2.9,10.8,3,10.7c1.1,0.4,2,1.2,2.7,2.2l3,4.7c1.3,2,3.9,2.6,5.9,1.5L33.7,8.3c0,0,0,0.1,0.1,0.1
						C34.1,8.9,34.4,9.5,34.6,10"/>
					<path class="st0" d="M35.9,13.8L16.1,24.9c-2.1,1.2-4.7,0.5-5.9-1.5l-0.4-0.6l-2-3.1L4,13.8c-0.4-0.7-1-1.2-1.6-1.6
						c0,0,0,0,0-0.1c0.1-0.2,0.1-0.3,0.2-0.5c0.8,0.4,1.5,1.1,2,1.9l2.7,4.3l2,3.1l0.4,0.6c1.3,2,3.9,2.6,5.9,1.5l19.7-11.1
						c0,0,0,0.1,0,0.1C35.6,12.6,35.8,13.2,35.9,13.8"/>
				</g>
			</g>
		</g>
	</g>
	<g>
		<path class="st0" d="M110.5,45V9.7h6.1l0,2.9c1.5-2.4,3.7-3.6,6.7-3.6c1.5,0,2.9,0.3,4.2,0.9c1.3,0.6,2.4,1.4,3.3,2.5
			c0.9,1.1,1.6,2.5,2.1,4c0.5,1.6,0.8,3.4,0.8,5.4c0,1.8-0.2,3.5-0.7,5c-0.4,1.5-1.1,2.8-1.9,3.9c-0.8,1.1-1.9,2-3.1,2.6
			c-1.2,0.6-2.6,0.9-4.2,0.9c-3,0-5.3-1.2-7.1-3.8V45H110.5z M121.8,28.9c3.6,0,5.5-2.5,5.5-7.4c0-2.1-0.5-3.9-1.5-5.2
			c-1-1.3-2.3-2-3.9-2c-1.5,0-2.8,0.6-3.8,1.9s-1.5,2.9-1.5,5C116.5,26.3,118.3,28.9,121.8,28.9z"/>
		<path class="st0" d="M141.8,23.3c0.1,1.8,0.6,3.3,1.6,4.3c1,1.1,2.2,1.6,3.8,1.6c1,0,2-0.2,2.8-0.7c0.8-0.5,1.3-1.1,1.5-2h6.5
			c-0.7,2.5-2,4.4-3.9,5.7c-1.9,1.3-4.1,2-6.6,2c-8,0-12-4.4-12-13.1c0-1.9,0.3-3.5,0.8-5c0.5-1.5,1.3-2.8,2.3-3.8
			c1-1.1,2.2-1.9,3.6-2.5c1.4-0.6,3.1-0.9,4.9-0.9c3.7,0,6.5,1.2,8.4,3.6c1.9,2.4,2.8,5.9,2.8,10.7H141.8z M151.8,19.3
			c0-0.9-0.2-1.6-0.5-2.3c-0.3-0.7-0.6-1.2-1.1-1.7c-0.5-0.4-1-0.8-1.6-1c-0.6-0.2-1.2-0.3-1.8-0.3c-1.3,0-2.4,0.5-3.3,1.4
			c-0.9,0.9-1.5,2.2-1.6,3.9H151.8z"/>
	</g>
</g>
</svg>
