<?xml version="1.0" encoding="utf-8"?>
<!-- Generator: Adobe Illustrator 24.1.2, SVG Export Plug-In . SVG Version: 6.00 Build 0)  -->
<svg version="1.1" id="Capa_1" xmlns="http://www.w3.org/2000/svg" xmlns:xlink="http://www.w3.org/1999/xlink" x="0px" y="0px"
	 viewBox="0 0 215 50" style="enable-background:new 0 0 215 50;" xml:space="preserve">
<style type="text/css">
	.st0{fill:#00DB24;}
	.st1{fill:#92FF2D;}
</style>
<g>
	<g>
		<g>
			<g>
				<path d="M57.56,11.95V3.71h8.24C65.8,8.26,62.11,11.95,57.56,11.95z M57.56,15.12h8.24v31.17h-8.24V15.12z"/>
				<path d="M98.43,11.95V3.71h8.24C106.66,8.26,102.98,11.95,98.43,11.95 M98.43,15.12h8.24v31.17h-8.24V15.12z"/>
				<path d="M138.47,35.01c-0.21,1.82-0.73,3.46-1.55,4.94c-0.82,1.48-1.87,2.75-3.14,3.8c-1.27,1.06-2.71,1.88-4.34,2.47
					c-1.63,0.59-3.39,0.89-5.29,0.89c-2.11,0-4.05-0.35-5.8-1.05c-1.75-0.7-3.26-1.75-4.53-3.17c-1.27-1.41-2.25-3.17-2.95-5.26
					c-0.7-2.09-1.05-4.53-1.05-7.32c0-2.79,0.35-5.2,1.05-7.22c0.7-2.03,1.68-3.69,2.95-4.97c1.27-1.29,2.8-2.25,4.59-2.88
					c1.8-0.63,3.79-0.95,5.99-0.95c2.03,0,3.88,0.28,5.54,0.82c1.67,0.55,3.13,1.35,4.37,2.41c1.25,1.06,2.23,2.32,2.95,3.8
					c0.72,1.48,1.14,3.13,1.27,4.94h-8.3c-0.21-1.6-0.86-2.86-1.93-3.77c-1.08-0.91-2.4-1.36-3.96-1.36c-0.89,0-1.71,0.15-2.47,0.44
					c-0.76,0.3-1.43,0.79-2,1.49c-0.57,0.7-1.02,1.63-1.36,2.79c-0.34,1.16-0.51,2.59-0.51,4.28c0,3.42,0.61,5.96,1.84,7.6
					c1.22,1.65,2.64,2.47,4.25,2.47c1.6,0,2.98-0.44,4.12-1.33c1.14-0.89,1.8-2.18,1.96-3.86H138.47z"/>
				<path d="M86.04,38.37c-0.78,1.06-2,1.58-3.64,1.58c-1.69,0-2.9-0.54-3.64-1.62c-0.74-1.08-1.11-2.61-1.11-4.59v-12.8h17.24
					v-5.83H77.64V6.69h-8.11v27.88c0,1.69,0.23,3.3,0.7,4.82c0.46,1.52,1.21,2.85,2.25,3.99c1.03,1.14,2.35,2.05,3.96,2.72
					c1.61,0.68,3.55,1.01,5.83,1.01c2.2,0,4.09-0.34,5.67-1.01c1.58-0.67,2.89-1.59,3.93-2.76c1.03-1.16,1.8-2.49,2.28-3.99
					c0.45-1.38,0.68-2.83,0.71-4.34h-7.71C87.02,36.41,86.66,37.53,86.04,38.37"/>
				<g>
					<path class="st0" d="M2.17,15.79C5.69,7.96,13.56,2.5,22.71,2.5c7.22,0,13.65,3.4,17.76,8.7L16.46,24.76
						c-2.68,1.51-6.08,0.67-7.74-1.92l-2.54-3.96C5.2,17.36,3.77,16.31,2.17,15.79"/>
					<path class="st0" d="M45.2,25c0,0.41-0.01,0.81-0.03,1.22C44.54,38.08,34.72,47.5,22.71,47.5C10.28,47.5,0.2,37.43,0.2,25
						c0-0.84,0.05-1.68,0.14-2.5c0.04-0.39,0.1-0.78,0.16-1.17c0.05-0.31,0.11-0.63,0.17-0.94c0.05-0.26,0.12-0.53,0.18-0.79
						c0.03-0.15,0.07-0.29,0.11-0.43c0.6,0.49,1.13,1.08,1.56,1.76l6.3,9.81l2.6,4.04l0.53,0.82c1.66,2.59,5.07,3.43,7.75,1.92
						l25.44-14.36c0,0.05,0.01,0.1,0.01,0.16C45.19,23.88,45.2,24.44,45.2,25"/>
					<path class="st1" d="M43.12,15.53L17.76,29.86c-2.68,1.51-6.08,0.67-7.74-1.92l-0.52-0.8l-4.78-7.44
						c-0.77-1.2-1.84-2.12-3.05-2.7c0.08-0.21,0.16-0.41,0.25-0.62c1.41,0.56,2.65,1.55,3.53,2.91l3.92,6.1
						c1.66,2.59,5.07,3.43,7.74,1.92l24.82-14.01c0.02,0.04,0.05,0.08,0.08,0.13C42.41,14.1,42.78,14.81,43.12,15.53"/>
					<path class="st1" d="M44.74,20.45l-25.7,14.51c-2.68,1.51-6.08,0.67-7.74-1.92l-0.53-0.83L8.19,28.2l-4.94-7.68
						c-0.56-0.87-1.26-1.58-2.07-2.13c0.01-0.03,0.02-0.05,0.02-0.08c0.07-0.21,0.14-0.43,0.22-0.64c1.01,0.58,1.89,1.4,2.56,2.44
						l3.57,5.56l2.58,4.01l0.53,0.82c1.66,2.59,5.06,3.43,7.74,1.92l25.66-14.49c0.02,0.05,0.03,0.09,0.05,0.14
						C44.37,18.84,44.58,19.64,44.74,20.45"/>
				</g>
			</g>
		</g>
	</g>
	<g>
		<path class="st0" d="M169.98,35.01c-0.21,1.82-0.73,3.47-1.55,4.94c-0.82,1.48-1.87,2.75-3.14,3.8c-1.27,1.06-2.72,1.88-4.34,2.47
			c-1.63,0.59-3.39,0.89-5.29,0.89c-2.11,0-4.05-0.35-5.8-1.05c-1.75-0.7-3.26-1.75-4.53-3.17c-1.27-1.42-2.25-3.17-2.95-5.26
			c-0.7-2.09-1.05-4.53-1.05-7.32c0-2.79,0.35-5.2,1.05-7.23c0.7-2.03,1.68-3.69,2.95-4.98c1.27-1.29,2.8-2.25,4.6-2.88
			c1.8-0.63,3.79-0.95,5.99-0.95c2.03,0,3.88,0.28,5.55,0.82c1.67,0.55,3.13,1.35,4.37,2.41c1.25,1.06,2.23,2.32,2.95,3.8
			c0.72,1.48,1.14,3.13,1.27,4.94h-8.3c-0.21-1.61-0.86-2.86-1.93-3.77c-1.08-0.91-2.4-1.36-3.96-1.36c-0.89,0-1.71,0.15-2.47,0.44
			c-0.76,0.3-1.43,0.79-2,1.49c-0.57,0.7-1.03,1.63-1.36,2.79c-0.34,1.16-0.51,2.59-0.51,4.28c0,3.42,0.61,5.96,1.84,7.61
			c1.23,1.65,2.64,2.47,4.25,2.47c1.61,0,2.98-0.44,4.12-1.33c1.14-0.89,1.8-2.18,1.97-3.87H169.98z"/>
		<path class="st0" d="M187.73,47.11c-2.54,0-4.8-0.4-6.78-1.2c-1.99-0.8-3.67-1.92-5.04-3.36c-1.37-1.44-2.42-3.17-3.14-5.2
			c-0.72-2.03-1.08-4.25-1.08-6.66c0-2.45,0.37-4.69,1.11-6.72c0.74-2.03,1.81-3.76,3.2-5.2c1.39-1.44,3.07-2.55,5.04-3.33
			c1.97-0.78,4.19-1.17,6.69-1.17c2.45,0,4.65,0.39,6.59,1.17c1.94,0.78,3.6,1.88,4.98,3.3c1.37,1.42,2.43,3.14,3.17,5.17
			c0.74,2.03,1.11,4.29,1.11,6.78c0,2.49-0.37,4.74-1.11,6.75c-0.74,2.01-1.8,3.73-3.17,5.17c-1.37,1.44-3.04,2.55-5.01,3.33
			C192.32,46.72,190.14,47.11,187.73,47.11z M187.73,40.2c5.03,0,7.54-3.17,7.54-9.51c0-6.3-2.51-9.45-7.54-9.45
			c-5.03,0-7.54,3.15-7.54,9.45C180.18,37.03,182.7,40.2,187.73,40.2z"/>
		<path class="st0" d="M206.55,46.29V3.69h8.24v42.6H206.55z"/>
	</g>
</g>
</svg>
